<?xml version="1.0" encoding="UTF-8" standalone="no"?>
<svg
   xmlns:dc="http://purl.org/dc/elements/1.1/"
   xmlns:cc="http://creativecommons.org/ns#"
   xmlns:rdf="http://www.w3.org/1999/02/22-rdf-syntax-ns#"
   xmlns:svg="http://www.w3.org/2000/svg"
   xmlns="http://www.w3.org/2000/svg"
   xmlns:sodipodi="http://sodipodi.sourceforge.net/DTD/sodipodi-0.dtd"
   xmlns:inkscape="http://www.inkscape.org/namespaces/inkscape"
   width="24"
   height="24"
   fill-rule="evenodd"
   clip-rule="evenodd"
   version="1.1"
   id="svg4"
   sodipodi:docname="starselect.svg"
   inkscape:version="0.92.4 (5da689c313, 2019-01-14)">
  <metadata
     id="metadata10">
    <rdf:RDF>
      <cc:Work
         rdf:about="">
        <dc:format>image/svg+xml</dc:format>
        <dc:type
           rdf:resource="http://purl.org/dc/dcmitype/StillImage" />
      </cc:Work>
    </rdf:RDF>
  </metadata>
  <defs
     id="defs8" />
  <sodipodi:namedview
     pagecolor="#ffffff"
     bordercolor="#666666"
     borderopacity="1"
     objecttolerance="10"
     gridtolerance="10"
     guidetolerance="10"
     inkscape:pageopacity="0"
     inkscape:pageshadow="2"
     inkscape:window-width="1600"
     inkscape:window-height="824"
     id="namedview6"
     showgrid="false"
     inkscape:zoom="9.8333333"
     inkscape:cx="12"
     inkscape:cy="7.9322034"
     inkscape:window-x="-9"
     inkscape:window-y="-9"
     inkscape:window-maximized="1"
     inkscape:current-layer="svg4" />
  <path
     d="M15.668 8.626l8.332 1.159-6.065 5.874 1.48 8.341-7.416-3.997-7.416 3.997 1.481-8.341-6.064-5.874 8.331-1.159 3.668-7.626 3.669 7.626zm-6.67.925l-6.818.948 4.963 4.807-1.212 6.825 6.068-3.271 6.069 3.271-1.212-6.826 4.964-4.806-6.819-.948-3.002-6.241-3.001 6.241z"
     id="path2" />
  <path
     style="fill:#ffb426;fill-opacity:0.63184083;stroke:#ffe200;stroke-width:0.63111705;stroke-miterlimit:4;stroke-dasharray:none;stroke-opacity:0.63137257"
     d="M 15.645847,21.913787 12.000169,19.944103 8.390719,21.88811 C 6.4055214,22.957313 4.757932,23.808779 4.7294092,23.780257 4.6889782,23.739826 5.8829917,16.732046 6.0833416,15.833898 6.1187457,15.675185 5.4674615,14.993864 3.1183913,12.732203 1.462715,11.138136 0.16841588,9.8217805 0.24217099,9.80697 0.31592609,9.7921594 2.1447324,9.5347183 4.3061851,9.2348785 6.4676377,8.9350388 8.2760402,8.6650304 8.3248573,8.6348596 8.3736745,8.604689 9.2136879,6.9094984 10.191553,4.8677695 11.16942,2.8260406 11.997961,1.1861329 12.032758,1.2235302 c 0.0348,0.037397 0.851539,1.7154529 1.814985,3.7290122 0.963446,2.0135593 1.763121,3.6730602 1.777056,3.6877798 0.02894,0.030569 7.955499,1.1427286 8.144428,1.1427286 0.06804,0 -0.636868,0.7436442 -1.566464,1.6525422 -0.929595,0.908899 -2.280878,2.230315 -3.002848,2.936482 l -1.312675,1.283938 0.726561,4.098422 c 0.399609,2.254131 0.715574,4.10531 0.702143,4.113729 -0.01343,0.0084 -1.664974,-0.871051 -3.670097,-1.954377 z m -6.150879,-1.646744 2.508527,-1.344883 3.029075,1.630131 c 1.665991,0.896573 3.041842,1.617364 3.057447,1.601759 0.01561,-0.01561 -0.245416,-1.55843 -0.580048,-3.428499 l -0.608423,-3.400127 0.737363,-0.70971 C 20.578506,11.786361 21.866677,10.482725 21.75739,10.447786 21.68761,10.425476 20.234746,10.219934 18.528814,9.9910258 16.822881,9.7621175 15.335593,9.5548659 15.223729,9.5304666 15.070701,9.497089 14.656919,8.728315 13.552649,6.4257332 12.745421,4.7425291 12.054884,3.3467739 12.018124,3.324055 11.981364,3.3013362 11.292803,4.6568703 10.487988,6.3363531 9.6831724,8.0158359 8.9779461,9.4251519 8.9208181,9.4681664 8.8636902,9.5111808 7.3754237,9.7398511 5.6135593,9.9763223 3.8516949,10.212794 2.343235,10.428513 2.2614261,10.455699 c -0.097915,0.03254 0.7006427,0.875584 2.336896,2.467083 l 2.4856392,2.417653 -0.5866082,3.348426 c -0.3226344,1.841635 -0.5848308,3.387118 -0.5826586,3.434406 0.00217,0.04729 0.2442038,-0.04842 0.5378479,-0.212681 0.293644,-0.164262 1.6627355,-0.903857 3.0424256,-1.643543 z"
     id="path897"
     inkscape:connector-curvature="0" />
  <path
     style="fill:#ffcc00;fill-opacity:0.63184084;stroke:#ffe200;stroke-width:0.63111705;stroke-miterlimit:4;stroke-dasharray:none;stroke-opacity:0.63137255"
     d="M 16.850847,21.134114 C 16.40339,20.891126 15.129411,20.204588 14.019782,19.608472 l -2.017506,-1.083846 -2.7480593,1.482291 c -1.5114325,0.81526 -2.7748847,1.455465 -2.8076717,1.422679 -0.032787,-0.03279 0.1823143,-1.44252 0.4780027,-3.13274 L 7.4621631,15.223729 5.1908291,13.019913 C 3.9415954,11.807815 2.9476264,10.787967 2.9820091,10.753584 3.0163918,10.719201 4.3017176,10.512346 5.8382886,10.293905 7.3748596,10.075465 8.7588437,9.8649186 8.9138088,9.8260249 9.1647056,9.7630538 9.349168,9.4421891 10.598084,6.8962985 l 1.40252,-2.8590104 1.321749,2.6949153 c 0.726961,1.4822034 1.429284,2.7945811 1.560715,2.9163951 0.207111,0.1919559 0.630115,0.2758311 3.17326,0.6292095 1.613861,0.224251 2.953991,0.427426 2.978065,0.451501 0.02407,0.02407 -0.97973,1.045168 -2.230677,2.269096 l -2.27445,2.225324 0.525739,2.949152 c 0.289157,1.622034 0.559088,3.052119 0.599848,3.177966 0.04076,0.125848 0.05958,0.22797 0.04183,0.226938 -0.01775,-10e-4 -0.398379,-0.200684 -0.845836,-0.443671 z"
     id="path903"
     inkscape:connector-curvature="0" />
</svg>
